<?xml version="1.0" encoding="UTF-8"?><svg xmlns="http://www.w3.org/2000/svg" viewBox="0 0 111.3 128.97"><defs><style>.cls-1,.cls-2{fill:#b2282f;}.cls-2{mix-blend-mode:multiply;}.cls-3{isolation:isolate;}</style></defs><g class="cls-3"><g id="Layer_2"><g id="Layer_1-2"><g><g><polygon class="cls-1" points="43.92 65.83 17.07 93.95 70.77 93.95 43.92 65.83"/><polygon class="cls-2" points="56.18 65.83 44.19 93.95 76.13 93.95 56.18 65.83"/><polygon class="cls-2" points="69.29 79.48 63.12 93.95 79.56 93.95 69.29 79.48"/><polygon class="cls-2" points="75.25 82.37 69.07 93.95 85.51 93.95 75.25 82.37"/><polygon class="cls-2" points="80.9 84.25 72.88 93.95 94.23 93.95 80.9 84.25"/></g><path class="cls-1" d="m111.3,111.3H0V0h111.3v111.3Zm-99.44-11.86h87.58V11.86H11.86v87.58Z"/><g><path class="cls-1" d="m18.96,127.54h-3.6l-.59,1.43h-2.75l4.21-9.81h1.84l4.38,9.81h-2.9l-.59-1.43Zm-2.57-2.42l-.09.22h1.75l-.06-.17-.81-2.11-.78,2.05Z"/><path class="cls-1" d="m28.96,126.69h4.43v2.29h-7v-9.7h2.57v7.41Z"/><path class="cls-1" d="m39.99,122.93h2.77v-3.66h2.57v9.7h-2.57v-3.75h-2.77v3.75h-2.57v-9.7h2.57v3.66Z"/><path class="cls-1" d="m56.11,127.54h-3.6l-.59,1.43h-2.75l4.21-9.81h1.84l4.38,9.81h-2.9l-.59-1.43Zm-2.57-2.42l-.09.22h1.75l-.06-.17-.81-2.11-.78,2.05Z"/><path class="cls-1" d="m66.12,128.97h-2.57v-9.7h2.05l2.77,3.75,2.77-3.75h2.02v9.7h-2.56v-4.79l-1.52,2.06h-1.43l-1.52-2.09v4.82Z"/><path class="cls-1" d="m79.78,125.69v3.28h-2.56v-9.7h4.09c4.18,0,4.8,4.75,1.57,6.18l2.26,3.08v.44h-2.74l-2.2-3.28h-.42Zm0-2.15h1.48c1.55,0,1.56-2,0-2h-1.48v2Z"/><path class="cls-1" d="m95.81,127.54h-3.6l-.59,1.43h-2.75l4.21-9.81h1.84l4.38,9.81h-2.9l-.59-1.43Zm-2.57-2.42l-.09.22h1.75l-.06-.17-.81-2.11-.78,2.05Z"/></g></g></g></g></g></svg>